<svg xmlns="http://www.w3.org/2000/svg" width="960" height="600" viewBox="0 0 960 600">
<defs>
  <linearGradient id="bg" x1="0" y1="0" x2="1" y2="1">
    <stop offset="0" stop-color="#0d1117"/>
    <stop offset="0.55" stop-color="#101827"/>
    <stop offset="1" stop-color="#151326"/>
  </linearGradient>
  <linearGradient id="g" x1="0" y1="0" x2="1" y2="1">
    <stop offset="0" stop-color="#58a6ff"/>
    <stop offset="1" stop-color="#a371f7"/>
  </linearGradient>
  <filter id="glow"><feGaussianBlur stdDeviation="8" result="b"/><feMerge><feMergeNode in="b"/><feMergeNode in="SourceGraphic"/></feMerge></filter>
</defs>
<rect width="960" height="600" rx="34" fill="url(#bg)"/>
<g opacity=".16" stroke="#58a6ff">
  <path d="M0 90H960M0 180H960M0 270H960M0 360H960M0 450H960M0 540H960"/>
  <path d="M120 0V600M240 0V600M360 0V600M480 0V600M600 0V600M720 0V600M840 0V600"/>
</g>
<circle cx="820" cy="100" r="92" fill="#58a6ff" opacity=".08"/>
<circle cx="140" cy="510" r="110" fill="#a371f7" opacity=".06"/>

<g transform="translate(210 135)">
 <rect x="0" y="0" width="260" height="260" rx="34" fill="#161b22" stroke="#58a6ff" stroke-width="4"/>
 <path d="M70 185l48-48 38 28 48-90" fill="none" stroke="#3fb950" stroke-width="11" stroke-linecap="round" stroke-linejoin="round"/>
 <path d="M500 130h-165" stroke="#a371f7" stroke-width="12" stroke-linecap="round"/>
 <path d="M458 82l48 48-48 48" fill="none" stroke="#a371f7" stroke-width="12" stroke-linecap="round" stroke-linejoin="round"/>
 <circle cx="570" cy="130" r="70" fill="#f59e0b" opacity=".16" stroke="#f59e0b" stroke-width="4"/>
 <path d="M545 130l18 18 34-42" fill="none" stroke="#f59e0b" stroke-width="11" stroke-linecap="round"/>
</g>
<text x="54" y="70" fill="#79c0ff" font-family="Arial,sans-serif" font-size="20" font-weight="700" letter-spacing="4">04 / OUTPUT</text>
<text x="54" y="548" fill="#c9d1d9" font-family="Arial,sans-serif" font-size="25" font-weight="700">Predict, classify or generate</text>
</svg>