<svg xmlns="http://www.w3.org/2000/svg" width="960" height="600" viewBox="0 0 960 600">
<defs>
  <linearGradient id="bg" x1="0" y1="0" x2="1" y2="1">
    <stop offset="0" stop-color="#0d1117"/>
    <stop offset="0.55" stop-color="#101827"/>
    <stop offset="1" stop-color="#151326"/>
  </linearGradient>
  <linearGradient id="g" x1="0" y1="0" x2="1" y2="1">
    <stop offset="0" stop-color="#58a6ff"/>
    <stop offset="1" stop-color="#a371f7"/>
  </linearGradient>
  <filter id="glow"><feGaussianBlur stdDeviation="8" result="b"/><feMerge><feMergeNode in="b"/><feMergeNode in="SourceGraphic"/></feMerge></filter>
</defs>
<rect width="960" height="600" rx="34" fill="url(#bg)"/>
<g opacity=".16" stroke="#58a6ff">
  <path d="M0 90H960M0 180H960M0 270H960M0 360H960M0 450H960M0 540H960"/>
  <path d="M120 0V600M240 0V600M360 0V600M480 0V600M600 0V600M720 0V600M840 0V600"/>
</g>
<circle cx="820" cy="100" r="92" fill="#58a6ff" opacity=".08"/>
<circle cx="140" cy="510" r="110" fill="#a371f7" opacity=".06"/>

<g transform="translate(110 130)">
 <g fill="#58a6ff"><circle cx="80" cy="90" r="15"/><circle cx="80" cy="210" r="15"/><circle cx="80" cy="330" r="15"/></g>
 <g fill="#a371f7"><circle cx="300" cy="65" r="14"/><circle cx="300" cy="165" r="14"/><circle cx="300" cy="265" r="14"/><circle cx="300" cy="365" r="14"/></g>
 <g fill="#3fb950"><circle cx="520" cy="125" r="16"/><circle cx="520" cy="305" r="16"/></g>
 <g stroke="url(#g)" stroke-width="4" opacity=".75">
  <path d="M95 90L286 65M95 90L286 165M95 90L286 265M95 210L286 65M95 210L286 165M95 210L286 265M95 210L286 365M95 330L286 165M95 330L286 265M95 330L286 365"/>
  <path d="M314 65L504 125M314 165L504 125M314 265L504 305M314 365L504 305M314 165L504 305M314 265L504 125"/>
 </g>
 <path d="M590 110h130v210H590z" fill="#161b22" stroke="#58a6ff" stroke-width="3" rx="18"/>
 <path d="M615 280l28-60 30 24 38-90" fill="none" stroke="#3fb950" stroke-width="9" stroke-linecap="round" stroke-linejoin="round" filter="url(#glow)"/>
</g>
<text x="54" y="70" fill="#79c0ff" font-family="Arial,sans-serif" font-size="20" font-weight="700" letter-spacing="4">MACHINE LEARNING</text>
<text x="54" y="548" fill="#c9d1d9" font-family="Arial,sans-serif" font-size="25" font-weight="700">Patterns become predictions</text>
</svg>